<?xml version="1.0" encoding="iso-8859-1"?>
<!-- Generator: Adobe Illustrator 19.0.0, SVG Export Plug-In . SVG Version: 6.00 Build 0)  -->
<svg version="1.1" id="Capa_1" xmlns="http://www.w3.org/2000/svg" xmlns:xlink="http://www.w3.org/1999/xlink" x="0px" y="0px"
	 viewBox="0 0 480 480" style="enable-background:new 0 0 480 480;" xml:space="preserve">
<path style="fill:#F78B2C;" d="M200,168h256v48H200V168z"/>
<path style="fill:#FFA12E;" d="M168,120h256v48H168V120z"/>
<path style="fill:#F78B2C;" d="M184,72h256v48H184V72z"/>
<g>
	<path style="fill:#FFA12E;" d="M160,24h256v48H160V24z"/>
	<path style="fill:#FFA12E;" d="M184,446.608V456h256v-48H235.832C222.135,425.085,204.291,438.376,184,446.608z"/>
</g>
<path style="fill:#F78B2C;" d="M440,360H259.808c-4.506,17.521-12.687,33.883-24,48H472v-48H440z"/>
<path style="fill:#FFA12E;" d="M264,328c-0.041,10.801-1.449,21.553-4.192,32H440v-48H262.896
	C263.596,317.305,263.965,322.649,264,328z"/>
<path style="fill:#F78B2C;" d="M262.896,312H440v-48H246.736C255.291,278.753,260.786,295.077,262.896,312z"/>
<path style="fill:#FFA12E;" d="M246.736,264H424v-48H197.92C218.232,227.293,235.102,243.881,246.736,264z"/>
<circle style="fill:#FDB62F;" cx="136" cy="328" r="128"/>
<g>
	<path style="fill:#F46B27;" d="M400,432h16v24h-16V432z"/>
	<path style="fill:#F46B27;" d="M368,432h16v24h-16V432z"/>
	<path style="fill:#F46B27;" d="M336,432h16v24h-16V432z"/>
	<path style="fill:#F46B27;" d="M304,432h16v24h-16V432z"/>
	<path style="fill:#F46B27;" d="M272,432h16v24h-16V432z"/>
	<path style="fill:#F46B27;" d="M240,432h16v24h-16V432z"/>
	<path style="fill:#F46B27;" d="M208,432h16v24h-16V432z"/>
	<path style="fill:#F46B27;" d="M432,384h16v24h-16V384z"/>
	<path style="fill:#F46B27;" d="M400,384h16v24h-16V384z"/>
	<path style="fill:#F46B27;" d="M368,384h16v24h-16V384z"/>
	<path style="fill:#F46B27;" d="M336,384h16v24h-16V384z"/>
	<path style="fill:#F46B27;" d="M304,384h16v24h-16V384z"/>
	<path style="fill:#F46B27;" d="M272,384h16v24h-16V384z"/>
	<path style="fill:#F46B27;" d="M400,336h16v24h-16V336z"/>
	<path style="fill:#F46B27;" d="M368,336h16v24h-16V336z"/>
	<path style="fill:#F46B27;" d="M336,336h16v24h-16V336z"/>
	<path style="fill:#F46B27;" d="M304,336h16v24h-16V336z"/>
	<path style="fill:#F46B27;" d="M272,336h16v24h-16V336z"/>
	<path style="fill:#F46B27;" d="M400,288h16v24h-16V288z"/>
	<path style="fill:#F46B27;" d="M368,288h16v24h-16V288z"/>
	<path style="fill:#F46B27;" d="M336,288h16v24h-16V288z"/>
	<path style="fill:#F46B27;" d="M304,288h16v24h-16V288z"/>
	<path style="fill:#F46B27;" d="M272,288h16v24h-16V288z"/>
	<path style="fill:#F46B27;" d="M384,240h16v24h-16V240z"/>
	<path style="fill:#F46B27;" d="M352,240h16v24h-16V240z"/>
	<path style="fill:#F46B27;" d="M320,240h16v24h-16V240z"/>
	<path style="fill:#F46B27;" d="M288,240h16v24h-16V240z"/>
	<path style="fill:#F46B27;" d="M256,240h16v24h-16V240z"/>
	<path style="fill:#F46B27;" d="M416,192h16v24h-16V192z"/>
	<path style="fill:#F46B27;" d="M384,192h16v24h-16V192z"/>
	<path style="fill:#F46B27;" d="M352,192h16v24h-16V192z"/>
	<path style="fill:#F46B27;" d="M320,192h16v24h-16V192z"/>
	<path style="fill:#F46B27;" d="M288,192h16v24h-16V192z"/>
	<path style="fill:#F46B27;" d="M256,192h16v24h-16V192z"/>
	<path style="fill:#F46B27;" d="M224,192h16v24h-16V192z"/>
	<path style="fill:#F46B27;" d="M384,144h16v24h-16V144z"/>
	<path style="fill:#F46B27;" d="M352,144h16v24h-16V144z"/>
	<path style="fill:#F46B27;" d="M320,144h16v24h-16V144z"/>
	<path style="fill:#F46B27;" d="M288,144h16v24h-16V144z"/>
	<path style="fill:#F46B27;" d="M256,144h16v24h-16V144z"/>
	<path style="fill:#F46B27;" d="M224,144h16v24h-16V144z"/>
	<path style="fill:#F46B27;" d="M192,144h16v24h-16V144z"/>
	<path style="fill:#F46B27;" d="M400,96h16v24h-16V96z"/>
	<path style="fill:#F46B27;" d="M368,96h16v24h-16V96z"/>
	<path style="fill:#F46B27;" d="M336,96h16v24h-16V96z"/>
	<path style="fill:#F46B27;" d="M304,96h16v24h-16V96z"/>
	<path style="fill:#F46B27;" d="M272,96h16v24h-16V96z"/>
	<path style="fill:#F46B27;" d="M240,96h16v24h-16V96z"/>
	<path style="fill:#F46B27;" d="M208,96h16v24h-16V96z"/>
	<path style="fill:#F46B27;" d="M376,48h16v24h-16V48z"/>
	<path style="fill:#F46B27;" d="M344,48h16v24h-16V48z"/>
	<path style="fill:#F46B27;" d="M312,48h16v24h-16V48z"/>
	<path style="fill:#F46B27;" d="M280,48h16v24h-16V48z"/>
	<path style="fill:#F46B27;" d="M248,48h16v24h-16V48z"/>
	<path style="fill:#F46B27;" d="M216,48h16v24h-16V48z"/>
	<path style="fill:#F46B27;" d="M184,48h16v24h-16V48z"/>
</g>
<g>
	<path style="fill:#FDB62F;" d="M40,176c0-22.091,17.909-40,40-40c-22.091,0-40-17.909-40-40"/>
	<path style="fill:#FDB62F;" d="M40,96c0,22.091-17.909,40-40,40c22.091,0,40,17.909,40,40"/>
</g>
<circle style="fill:#FFA12E;" cx="136" cy="328" r="96"/>
<g>
	<path style="fill:#F46B27;" d="M48,328H32c0.066-57.41,46.59-103.934,104-104v16C87.423,240.057,48.057,279.423,48,328z"/>
	<path style="fill:#F46B27;" d="M136,432v-16c48.577-0.057,87.943-39.423,88-88h16C239.934,385.41,193.41,431.934,136,432z"/>
	<path style="fill:#F46B27;" d="M184,304c-0.055-14.547-9.915-27.227-24-30.864V256h-16v16h-16v-16h-16v16H96c-4.418,0-8,3.582-8,8
		v96c0,4.418,3.582,8,8,8h16v16h16v-16h16v16h16v-17.136c17.064-4.357,27.364-21.722,23.007-38.786
		c-1.591-6.231-5.029-11.836-9.863-16.078C180.049,321.936,184.005,313.19,184,304z M152,368h-48v-32h48c8.837,0,16,7.163,16,16
		S160.837,368,152,368z M152,320h-48v-32h48c8.837,0,16,7.163,16,16S160.837,320,152,320z"/>
</g>
<path d="M136,224c-57.41,0.066-103.934,46.59-104,104h16c0.057-48.577,39.423-87.943,88-88V224z"/>
<path d="M136,432c57.41-0.066,103.934-46.59,104-104h-16c-0.057,48.577-39.423,87.943-88,88V432z"/>
<path d="M144,400h16v-17.136c17.064-4.357,27.364-21.722,23.007-38.786c-1.591-6.231-5.029-11.836-9.863-16.078
	c13.237-11.616,14.55-31.764,2.934-45.001c-4.242-4.834-9.847-8.272-16.078-9.863V256h-16v16h-16v-16h-16v16H96
	c-4.418,0-8,3.582-8,8v96c0,4.418,3.582,8,8,8h16v16h16v-16h16V400z M104,288h48c8.837,0,16,7.163,16,16s-7.163,16-16,16h-48V288z
	 M104,336h48c8.837,0,16,7.163,16,16s-7.163,16-16,16h-48V336z"/>
<path d="M32,176h16c0-17.673,14.327-32,32-32v-16c-17.673,0-32-14.327-32-32H32c0,17.673-14.327,32-32,32v16
	C17.673,144,32,158.327,32,176z M40,122.4c3.546,5.388,8.135,10.012,13.496,13.6c-5.361,3.588-9.95,8.212-13.496,13.6
	c-3.546-5.388-8.135-10.012-13.496-13.6C31.865,132.412,36.454,127.788,40,122.4z"/>
<path d="M472,352h-24v-88c0-4.418-3.582-8-8-8h-8v-32h24c4.418,0,8-3.582,8-8v-48c0-4.418-3.582-8-8-8h-24v-32h8
	c4.418,0,8-3.582,8-8V72c0-4.418-3.582-8-8-8h-16V24c0-4.418-3.582-8-8-8H160c-4.418,0-8,3.582-8,8v48c0,4.418,3.582,8,8,8h16v32h-8
	c-4.418,0-8,3.582-8,8v48c0,4.418,3.582,8,8,8h24v28.208c-68.412-30.899-148.92-0.489-179.819,67.923s-0.489,148.92,67.923,179.819
	c30.287,13.679,64.535,15.789,96.272,5.93c0.824,3.556,3.975,6.085,7.624,6.12h256c4.418,0,8-3.582,8-8v-40h24c4.418,0,8-3.582,8-8
	v-48C480,355.582,476.418,352,472,352z M400,336v16h-16v-16h-16v16h-16v-16h-16v16h-16v-16h-16v16h-16v-16h-16v16h-2.24
	c0.04-0.224,0.048-0.448,0.088-0.672c0.632-3.608,1.192-7.2,1.528-10.936c0.4-4.16,0.624-8.304,0.624-12.392
	c0-2.592-0.088-5.224-0.28-8H432v32h-16v-16H400z M424,272h8v32h-16v-16h-16v16h-16v-16h-16v16h-16v-16h-16v16h-16v-16h-16v16h-16
	v-16h-16v16h-2.224l-0.096-0.44c-0.392-2.168-0.856-4.312-1.352-6.448c-0.376-1.6-0.8-3.2-1.248-4.8
	c-0.8-3.008-1.728-5.96-2.744-8.88c-0.616-1.768-1.24-3.52-1.928-5.264s-1.44-3.576-2.224-5.328c-0.12-0.272-0.216-0.544-0.336-0.8
	L424,272z M416,256h-16v-16h-16v16h-16v-16h-16v16h-16v-16h-16v16h-16v-16h-16v16h-16v-16h-16v16h-4.744
	c-0.256-0.408-0.56-0.8-0.8-1.2c-1.264-1.968-2.584-3.888-3.944-5.784c-1.016-1.424-2.064-2.816-3.136-4.2
	c-1.28-1.6-2.552-3.288-3.904-4.872c-1.52-1.784-3.12-3.488-4.72-5.192c-1.056-1.12-2.064-2.28-3.152-3.368
	c-2.584-2.56-5.264-5.032-8.048-7.384H416L416,256z M168,32h240v32h-16V48h-16v16h-16V48h-16v16h-16V48h-16v16h-16V48h-16v16h-16V48
	h-16v16h-16V48h-16v16h-16V48h-16v16h-16V32z M192,80h240v32h-16V96h-16v16h-16V96h-16v16h-16V96h-16v16h-16V96h-16v16h-16V96h-16
	v16h-16V96h-16v16h-16V96h-16v16h-16V80z M176,128h240v32h-16v-16h-16v16h-16v-16h-16v16h-16v-16h-16v16h-16v-16h-16v16h-16v-16h-16
	v16h-16v-16h-16v16h-16v-16h-16v16h-16V128z M424,176h24v32h-16v-16h-16v16h-16v-16h-16v16h-16v-16h-16v16h-16v-16h-16v16h-16v-16
	h-16v16h-16v-16h-16v16h-16v-16h-16v16h-16v-32H424z M16,328c-0.07-66.217,53.552-119.953,119.769-120.023
	c23.644-0.025,46.768,6.941,66.463,20.023c0.744,0.496,1.464,1.024,2.2,1.536c2.171,1.509,4.285,3.091,6.344,4.744
	c0.76,0.608,1.528,1.2,2.272,1.824c2.464,2.075,4.845,4.24,7.144,6.496c0.848,0.8,1.6,1.728,2.464,2.592
	c1.429,1.493,2.821,3.024,4.176,4.592c1.048,1.224,2.096,2.464,3.096,3.736s1.976,2.6,2.936,3.912
	c1.893,2.608,3.691,5.296,5.392,8.064c0.6,0.976,1.216,1.944,1.792,2.944c1.72,3,3.28,6.072,4.728,9.184
	c0.216,0.464,0.456,0.92,0.672,1.392c1.44,3.2,2.712,6.48,3.856,9.792c0.136,0.4,0.304,0.8,0.44,1.192
	c1.176,3.528,2.176,7.112,3.024,10.752c0.04,0.184,0.096,0.352,0.136,0.536c0.869,3.84,1.555,7.733,2.056,11.68
	c0.256,2.088,0.416,3.944,0.576,5.816c0.232,3.048,0.464,6.088,0.464,9.192c0,3.36-0.232,6.664-0.504,9.952
	c-0.128,1.456-0.248,2.912-0.432,4.376c-0.136,1.12-0.344,2.216-0.512,3.328c-0.624,4-1.4,8-2.4,12.064l-0.112,0.44
	c-1,3.864-2.2,7.632-3.552,11.328c-0.152,0.408-0.296,0.8-0.456,1.232c-1.224,3.2-2.632,6.4-4.128,9.504
	c-0.384,0.8-0.752,1.6-1.16,2.4c-1.376,2.704-2.912,5.328-4.496,7.928c-0.608,0.976-1.168,1.984-1.792,2.944
	c-1.656,2.536-3.472,4.984-5.328,7.408c-0.624,0.8-1.2,1.664-1.84,2.464c-2.975,3.648-6.159,7.121-9.536,10.4
	c-0.616,0.6-1.288,1.152-1.912,1.744c-2.832,2.64-5.784,5.152-8.856,7.504c-0.912,0.704-1.835,1.395-2.768,2.072
	c-3.332,2.423-6.787,4.672-10.352,6.736c-0.48,0.28-0.928,0.592-1.408,0.856C176.599,442.674,156.475,447.956,136,448
	C69.757,447.925,16.075,394.243,16,328L16,328z M199.944,448c2.76-1.48,5.408-3.136,8.056-4.8v4.8h-8.12H199.944z M432,448h-16v-16
	h-16v16h-16v-16h-16v16h-16v-16h-16v16h-16v-16h-16v16h-16v-16h-16v16h-16v-16h-16v16h-16v-16h-0.544
	c1.344-1.128,2.592-2.4,3.896-3.536s2.696-2.4,4-3.616c1.728-1.704,3.328-3.52,4.96-5.312c1.088-1.192,2.264-2.304,3.312-3.536H432
	V448z M464,400h-16v-16h-16v16h-16v-16h-16v16h-16v-16h-16v16h-16v-16h-16v16h-16v-16h-16v16h-16v-16h-16v16h-20.688
	c1.016-1.6,1.944-3.32,2.888-4.992s1.76-3.2,2.6-4.8c1.136-2.216,2.24-4.464,3.256-6.752c0.896-1.992,1.72-4,2.52-6.064
	c0.376-0.976,0.728-1.968,1.088-2.952c0.8-2.144,1.6-4.248,2.312-6.4H464L464,400z"/>
<g>
</g>
<g>
</g>
<g>
</g>
<g>
</g>
<g>
</g>
<g>
</g>
<g>
</g>
<g>
</g>
<g>
</g>
<g>
</g>
<g>
</g>
<g>
</g>
<g>
</g>
<g>
</g>
<g>
</g>
</svg>
