<?xml version="1.0"?>
<svg xmlns="http://www.w3.org/2000/svg" xmlns:xlink="http://www.w3.org/1999/xlink" version="1.1" id="Layer_1" x="0px" y="0px" viewBox="0 0 511.674 511.674" style="enable-background:new 0 0 511.674 511.674;" xml:space="preserve" width="512px" height="512px" class=""><g><path style="fill:#E6E9ED;" d="M245.11,265.262c-98.296-98.297-162.037,2.951-162.037,2.951S53.615,316.674,25.079,382.46  S0.15,485.004,0.15,485.004l12.609,12.601l12.609,12.617c0,0,36.75,3.607,102.536-24.938  c65.794-28.528,114.263-57.994,114.263-57.994S343.406,363.55,245.11,265.262z" data-original="#E6E9ED" class=""/><g>
	<path style="fill:#5B616C" d="M237.085,430.305l-7.152-3.451c0,0-58.97-42.535-93.745,54.793   C185.469,459.754,223.78,438.065,237.085,430.305z" data-original="#434A54" class="active-path" data-old_color="#595F69"/>
	<path style="fill:#5B616C" d="M85.697,282.602l-5.465-9.603c-7.729,13.226-30.098,52.669-52.482,103.355   C125.242,341.58,85.697,282.602,85.697,282.602z" data-original="#434A54" class="active-path" data-old_color="#595F69"/>
	<path style="fill:#5B616C" d="M31.599,471.232L31.599,471.232L31.599,471.232c4.162-4.17,4.162-10.915,0-15.084   c-4.161-4.154-10.915-4.154-15.076,0v0.016L0.314,472.356c-0.593,8.322-0.164,12.648-0.164,12.648l8.838,8.838L31.599,471.232z" data-original="#434A54" class="active-path" data-old_color="#595F69"/>
	<path style="fill:#5B616C" d="M54.21,478.774c-4.162-4.17-10.907-4.17-15.069-0.016l-0.008,0.016l-22.61,22.61l8.846,8.838   c0,0,4.318,0.422,12.633-0.172l16.208-16.208c0,0,0,0,0.008,0C58.379,489.673,58.379,482.927,54.21,478.774z" data-original="#434A54" class="active-path" data-old_color="#595F69"/>
</g><path style="fill:#9A5748" d="M114.437,114.92c4.997-43.284,21.322-42.457,47.024-113.614c0,0-126.614,88.553-116.628,156.79  c4.419,30.199,54.231,126.614,54.231,126.614s62.804,4.294,83.205-39.529C191.824,224.647,109.447,158.205,114.437,114.92z" data-original="#FC6E51" class="" data-old_color="#9B5748"/><g>
	<path style="fill:#5B3633" d="M56.036,109.815c-3.513,6.573-6.386,13.194-8.409,19.753c28.748,15.833,61.765,10.462,70.76,8.557   c-2.85-7.308-4.427-14.35-4.123-20.908C108.331,118.496,79.225,123.79,56.036,109.815z" data-original="#E9573F" class="" data-old_color="#5A3532"/>
	<path style="fill:#5B3633" d="M127.467,156.222c-8.19,4.123-45.229,20.909-81.229,8.526c1.726,6.636,4.63,14.944,8.229,24.094   c42.528,7.636,80.87-12.57,84.829-14.741C135.056,168.168,131.012,162.171,127.467,156.222z" data-original="#E9573F" class="" data-old_color="#5A3532"/>
	<path style="fill:#5B3633" d="M157.76,198.601c-11.461,8.588-48.118,32.854-87.92,25.983c3.553,7.776,7.152,15.412,10.548,22.486   c42.114,1.562,77.544-21.846,90.161-31.371C166.77,210.344,162.382,204.597,157.76,198.601z" data-original="#E9573F" class="" data-old_color="#5A3532"/>
</g><path style="fill:#9A5748" d="M398.075,398.543c43.269-4.996,42.457-21.33,113.599-47.032c0,0-88.537,126.622-156.79,116.629  c-30.184-4.419-126.622-54.216-126.622-54.216s-4.286-62.818,39.545-83.212C288.333,321.155,354.791,403.54,398.075,398.543z" data-original="#FC6E51" class="" data-old_color="#9B5748"/><g>
	<path style="fill:#5B3633" d="M403.166,456.943c-6.574,3.514-13.18,6.387-19.754,8.401c-15.833-28.732-10.445-61.758-8.557-70.752   c7.309,2.842,14.365,4.419,20.924,4.122C394.499,404.649,389.205,433.755,403.166,456.943z" data-original="#E9573F" class="" data-old_color="#5A3532"/>
	<path style="fill:#5B3633" d="M356.758,385.505c-4.107,8.198-20.893,45.236-8.51,81.229c-6.637-1.718-14.959-4.622-24.109-8.229   c-7.621-42.52,12.585-80.87,14.756-84.82C344.813,377.932,350.809,381.96,356.758,385.505z" data-original="#E9573F" class="" data-old_color="#5A3532"/>
	<path style="fill:#5B3633" d="M314.395,355.212c-8.588,11.477-32.854,48.125-25.983,87.928   c-7.776-3.561-15.412-7.151-22.501-10.556c-1.547-42.098,21.845-77.528,31.386-90.161   C302.637,346.218,308.383,350.59,314.395,355.212z" data-original="#E9573F" class="" data-old_color="#5A3532"/>
</g></g> </svg>
