<?xml version="1.0"?>
<svg xmlns="http://www.w3.org/2000/svg" xmlns:xlink="http://www.w3.org/1999/xlink" version="1.1" id="Capa_1" x="0px" y="0px" viewBox="0 0 512 512" style="enable-background:new 0 0 512 512;" xml:space="preserve" width="512px" height="512px" class=""><g><circle style="fill:#E96877" cx="256" cy="256" r="256" data-original="#00DE7E" class="" data-old_color="#E96776"/><path style="fill:#CE4155" d="M267.623,511.097C403.612,505.019,512,392.859,512,255.371c0-2.246-0.03-4.485-0.088-6.717  l-90.42-90.42L408.59,174.44l-65.514-65.514L85.39,328.864L267.623,511.097z" data-original="#00B77C" class="active-path" data-old_color="#CE4054"/><path style="fill:#704511" d="M115.031,340.527L115.031,340.527c-24.041,0-43.531-19.489-43.531-43.53V212.53  c0-48.082,38.978-87.061,87.061-87.061l0,0v171.527C158.561,321.037,139.072,340.527,115.031,340.527z" data-original="#BA7420" class="" data-old_color="#704510"/><path style="fill:#462F0A" d="M396.969,340.527L396.969,340.527c24.041,0,43.531-19.489,43.531-43.53V212.53  c0-48.082-38.978-87.061-87.061-87.061l0,0v171.527C353.439,321.037,372.928,340.527,396.969,340.527z" data-original="#915513" class="" data-old_color="#442E0A"/><path style="fill:#D1954B" d="M256,445.269L256,445.269c-70.691,0-127.997-57.306-127.997-127.997V202.728  c0-70.691,57.306-127.997,127.997-127.997l0,0c70.691,0,127.997,57.306,127.997,127.997v114.544  C383.997,387.963,326.691,445.269,256,445.269z" data-original="#D59134" class="" data-old_color="#D1954A"/><path style="fill:#9B5F1B" d="M256,74.731L256,74.731c-0.016,0-0.032,0.001-0.048,0.001v370.536c0.016,0,0.032,0,0.047,0l0,0  c70.691,0,127.997-57.306,127.997-127.997V202.728C383.997,132.037,326.691,74.731,256,74.731z" data-original="#A06927" class="" data-old_color="#9C601C"/><path style="fill:#2B2A2A" d="M289.101,352.021c0,6.369-5.182,11.551-11.55,11.551c-6.369,0-11.551-5.182-11.551-11.551V329.5  c1.067-0.692,2.082-1.5,3.018-2.436l22.052-22.051c11.598-11.598,3.384-31.428-13.017-31.428H233.95  c-16.402,0-24.616,19.831-13.018,31.428l22.051,22.051c0.936,0.936,1.95,1.744,3.018,2.436v22.52c0,6.369-5.182,11.551-11.55,11.551  s-11.55-5.182-11.55-11.551h-20c0,17.397,14.153,31.551,31.55,31.551c8.327,0,15.906-3.249,21.55-8.538  c5.645,5.289,13.223,8.538,21.551,8.538c17.396,0,31.55-14.154,31.55-31.551h-20.001V352.021z" data-original="#4D4D4D" class="" data-old_color="#2C2C2C"/><path style="fill:#1C1B1B" d="M289.101,352.021c0,6.369-5.182,11.551-11.55,11.551c-6.369,0-11.551-5.182-11.551-11.551V329.5  c1.067-0.692,2.082-1.5,3.018-2.436l22.052-22.051c11.598-11.598,3.384-31.428-13.017-31.428h-22.099v101.491  c0.016-0.015,0.032-0.028,0.048-0.042c5.645,5.289,13.223,8.538,21.551,8.538c17.396,0,31.55-14.154,31.55-31.551H289.101z" data-original="#333333" class="" data-old_color="#1A1A1A"/><path style="fill:#E1B670" d="M128.003,202.728v58.613c10.147,16.05,28.038,26.718,48.431,26.718  c31.63,0,57.272-25.641,57.272-57.272c0-24.489-15.371-105.967-36.99-141.519C155.875,110.652,128.003,153.432,128.003,202.728z" data-original="#E4AB47" class="" data-old_color="#E1B66F"/><path style="fill:#D1954B" d="M383.997,202.728v58.613c-10.147,16.05-28.038,26.718-48.431,26.718  c-31.63,0-57.272-25.641-57.272-57.272c0-24.489,15.371-105.967,36.99-141.519C356.125,110.652,383.997,153.432,383.997,202.728z" data-original="#D59134" class="" data-old_color="#D1954A"/><circle style="fill:#2B2A2A" cx="175.37" cy="230.2" r="17.456" data-original="#4D4D4D" class="" data-old_color="#2C2C2C"/><circle style="fill:#1C1B1B" cx="336.63" cy="230.2" r="17.456" data-original="#333333" class="" data-old_color="#1A1A1A"/></g> </svg>
