<?xml version="1.0"?>
<svg xmlns="http://www.w3.org/2000/svg" xmlns:xlink="http://www.w3.org/1999/xlink" version="1.1" id="Layer_1" x="0px" y="0px" viewBox="0 0 505 505" style="enable-background:new 0 0 505 505;" xml:space="preserve" width="512px" height="512px" class=""><g><circle style="fill:#E5DFBA" cx="252.5" cy="252.5" r="252.5" data-original="#54C0EB" class="" data-old_color="#E5DFB9"/><path style="fill:#FFFFFF" d="M392.3,306.2L252.5,251l-139.8,55.1c0,0,0.9,22.1-17.2,36.5c0,0,48-12.8,123.6,46h66.8  c75.6-58.8,123.6-46,123.6-46C391.4,328.3,392.3,306.2,392.3,306.2z" data-original="#FFFFFF" class="active-path"/><path style="fill:#273A49" d="M401.1,311.8l13.9,20.6c0,0-107.3-12.4-162.5,45.6C197.3,320,90,332.5,90,332.5l13.9-20.6  c-7.4-3.4-26.7,8.2-27.7,8.9c4.5-14.4,26.1-34,26.1-34c-13-7.6-26.1,1.4-26.1,1.4c20.1-93.6,98.7-165.3,176.3-165.8  c77.6,0.5,156.2,72.2,176.3,165.8c0,0-13.1-9.1-26.1-1.4c0,0,21.6,19.5,26.1,34C427.8,320.1,408.5,308.4,401.1,311.8z" data-original="#324A5E" class="" data-old_color="#273B4B"/><g>
	<path style="fill:#ACB3BA;" d="M252.5,262.6c-13.1,0-25.1,8.8-30,22.3c-7.8,21.3-12.6,48.1-12.6,69.5c0,42.7,19.1,48.1,42.6,48.1   s42.6-5.4,42.6-48.1c0-21.4-4.8-48.2-12.6-69.5C277.6,271.4,265.6,262.6,252.5,262.6L252.5,262.6z" data-original="#ACB3BA" class=""/>
	<path style="fill:#ACB3BA;" d="M343.7,253.4c13.4,1.3,18.8-8.2,22.3-11.9c-9.9,4-15.9-7-29.1-8.6c6.5-2.1,12.7-5.2,18.3-9.4   c-54.6-12.5-82.5,13.1-97.3,44.1l11.9,45.8c3.7-2.9,7.5-5.6,11.5-8c14.9-8.8,32.3-12.9,49.3-11.8c6.5,0.5,13.1,1.6,19.5,0.4   s12.8-5.7,14.3-12.5c-3.4,3.1-8.3,3.4-12.7,2.9c-4.4-0.6-8.8-1.9-13.2-1.9c2.1-4.6,27.9-7.7,26.7-25.1   C355.2,261.5,351.1,260.4,343.7,253.4z" data-original="#ACB3BA" class=""/>
	<path style="fill:#ACB3BA;" d="M161.3,253.4c-13.4,1.3-18.8-8.2-22.3-11.9c9.9,4,15.9-7,29.1-8.6c-6.5-2.1-12.7-5.2-18.3-9.4   c54.6-12.5,82.5,13.1,97.3,44.1l-11.9,45.8c-3.7-2.9-7.5-5.6-11.5-8c-14.9-8.8-32.3-12.9-49.3-11.8c-6.5,0.5-13.1,1.6-19.5,0.4   s-12.8-5.7-14.3-12.5c3.4,3.1,8.3,3.4,12.7,2.9c4.4-0.6,8.8-1.9,13.2-1.9c-2.1-4.6-27.9-7.7-26.7-25.1   C149.8,261.5,153.9,260.4,161.3,253.4z" data-original="#ACB3BA" class=""/>
</g><g>
	<path style="fill:#273A49" d="M274,368.8c0,9.8-9.6,23.2-21.5,23.2c-11.8,0-21.5-13.3-21.5-23.2c0-9.8,9.6-12.5,21.5-12.5   S274,359,274,368.8z" data-original="#324A5E" class="" data-old_color="#273B4B"/>
	<path style="fill:#273A49" d="M307.2,150.6c0,0,81.8-62.8,108.1-45c26.3,17.9-44.7,107.3-44.7,107.3L307.2,150.6z" data-original="#324A5E" class="" data-old_color="#273B4B"/>
	<path style="fill:#273A49" d="M197.8,150.6c0,0-81.8-62.8-108.1-45c-26.3,17.9,44.7,107.3,44.7,107.3L197.8,150.6z" data-original="#324A5E" class="" data-old_color="#273B4B"/>
</g><g>
	<path style="fill:#17212D" d="M357.5,155c-4.1-0.8-8-3.4-10.4-7.1c-1.3-2-2.7-7.2-0.4-6.7c15.6,3.5,18.2-4.3,26.2-4.2   c-8.7-2.3-8.9-6.3-8.9-6.3c0.3-1.2,21.9-13.6,33.6-14.4c4.5-0.3,9.8-0.3,11.8,4c0.9,1.9,1,4.1,0.9,6.2   c-0.5,11.4-5.2,22.5-12.8,30.5c-2.8,3-6.1,5.5-9.3,8c-13.1,10.2-26.9,20.8-43,22.9c-1.7,0.2-3.4,0.3-5-0.5c-1.9-1-3-3.3-3.6-5.5   c-1.8-6.6-0.3-14.1,3.8-19.3C344.5,157.2,351.1,154.3,357.5,155z" data-original="#2B3B4E" class="" data-old_color="#18222F"/>
	<path style="fill:#17212D" d="M147.5,155c4.1-0.8,8-3.4,10.4-7.1c1.3-2,2.7-7.2,0.4-6.7c-15.6,3.5-18.2-4.3-26.2-4.2   c8.7-2.3,8.9-6.3,8.9-6.3c-0.3-1.2-21.9-13.6-33.6-14.4c-4.5-0.3-9.8-0.3-11.8,4c-0.9,1.9-1,4.1-0.9,6.2   c0.5,11.4,5.2,22.5,12.8,30.5c2.8,3,6.1,5.5,9.3,8c13.1,10.2,26.9,20.8,43,22.9c1.7,0.2,3.4,0.3,5-0.5c1.9-1,3-3.3,3.6-5.5   c1.8-6.6,0.3-14.1-3.8-19.3C160.5,157.2,153.9,154.3,147.5,155z" data-original="#2B3B4E" class="" data-old_color="#18222F"/>
	<path style="fill:#17212D" d="M330.6,250.9c-1.7,5.8-4.9,10.7-9,14.2c-2.6,2.4-5.6,4.1-8.8,5.4c-5.7,2.2-12.2,2.5-18.4,0.4   c1.9-6.4,5.6-11.6,10.3-15.3c2.4-1.9,5.1-3.4,8-4.5C318.3,249,324.6,248.9,330.6,250.9z" data-original="#2B3B4E" class="" data-old_color="#18222F"/>
</g><path style="fill:#F9B54C;" d="M322.7,260.8c0,1.6-0.4,3.1-1.1,4.4c-2.6,2.4-5.6,4.1-8.8,5.4c-5.4,0-9.7-4.4-9.7-9.7  c0-1.9,0.6-3.7,1.5-5.2c2.4-1.9,5.1-3.4,8-4.5h0.2C318.3,251,322.7,255.4,322.7,260.8z" data-original="#F9B54C"/><path style="fill:#17212D" d="M174.4,250.9c1.7,5.8,4.9,10.7,9,14.2c2.6,2.4,5.6,4.1,8.8,5.4c5.7,2.2,12.2,2.5,18.4,0.4  c-1.9-6.4-5.6-11.6-10.3-15.3c-2.4-1.9-5.1-3.4-8-4.5C186.7,249,180.4,248.9,174.4,250.9z" data-original="#2B3B4E" class="" data-old_color="#18222F"/><path style="fill:#F9B54C;" d="M182.3,260.8c0,1.6,0.4,3.1,1.1,4.4c2.6,2.4,5.6,4.1,8.8,5.4c5.4,0,9.7-4.4,9.7-9.7  c0-1.9-0.6-3.7-1.5-5.2c-2.4-1.9-5.1-3.4-8-4.5h-0.2C186.7,251,182.3,255.4,182.3,260.8z" data-original="#F9B54C"/><g>
	<circle style="fill:#17212D" cx="192.3" cy="260.8" r="3.3" data-original="#2B3B4E" class="" data-old_color="#18222F"/>
	<circle style="fill:#17212D" cx="312.8" cy="260.8" r="3.3" data-original="#2B3B4E" class="" data-old_color="#18222F"/>
</g><g>
	<path style="fill:#273A49" d="M292.4,274.5c0,0,0.4-3.5,2.5-8.2c0.6-1.2,1.1-2.5,1.9-3.7c0.8-1.3,1.6-2.6,2.7-3.9   c1-1.4,2.3-2.5,3.5-3.8c1.4-1,2.7-2.3,4.3-3.2l2.4-1.3c0.8-0.4,1.7-0.6,2.5-0.9c1.7-0.7,3.4-0.8,5.1-1.1c1.7-0.4,3.3,0,4.8,0   s2.9,0.5,4.2,0.8c1.3,0.3,2.5,0.6,3.4,1.1c1,0.5,1.8,0.8,2.5,1.2c1.3,0.7,2.1,1.1,2.1,1.1s-0.8-0.1-2.3-0.3   c-0.7-0.1-1.6-0.3-2.6-0.5c-1-0.3-2.1-0.2-3.4-0.3c-1.2,0-2.5-0.3-3.9-0.1s-2.8,0-4.3,0.5c-1.4,0.3-2.9,0.6-4.3,1.2   c-0.7,0.3-1.5,0.5-2.2,0.8l-2,1.2c-1.4,0.6-2.6,1.8-3.9,2.6c-1.1,1.1-2.4,2-3.4,3.2c-1,1.1-2,2.2-2.9,3.3c-0.9,1.1-1.6,2.2-2.4,3.2   C294,271.5,292.4,274.5,292.4,274.5z" data-original="#324A5E" class="" data-old_color="#273B4B"/>
	<path style="fill:#273A49" d="M213.5,274.5c0,0-0.4-3.5-2.5-8.2c-0.6-1.2-1.1-2.5-1.9-3.7c-0.8-1.3-1.6-2.6-2.7-3.9   c-1-1.4-2.3-2.5-3.5-3.8c-1.4-1-2.7-2.3-4.3-3.2l-2.4-1.3c-0.8-0.4-1.7-0.6-2.5-0.9c-1.7-0.7-3.4-0.8-5.1-1.1c-1.7-0.4-3.3,0-4.8,0   s-2.9,0.5-4.2,0.8s-2.5,0.6-3.4,1.1c-1,0.5-1.8,0.8-2.5,1.2c-1.3,0.7-2.1,1.1-2.1,1.1s0.8-0.1,2.3-0.3c0.7-0.1,1.6-0.3,2.6-0.5   c1-0.3,2.1-0.2,3.4-0.3c1.2,0,2.5-0.3,3.9-0.1s2.8,0,4.3,0.5c1.4,0.3,2.9,0.6,4.3,1.2c0.7,0.3,1.5,0.5,2.2,0.8l2,1.2   c1.4,0.6,2.6,1.8,3.9,2.6c1.1,1.1,2.4,2,3.4,3.2c1,1.1,2,2.2,2.9,3.3c0.9,1.1,1.6,2.2,2.4,3.2C211.8,271.5,213.5,274.5,213.5,274.5   z" data-original="#324A5E" class="" data-old_color="#273B4B"/>
</g><g>
	<circle style="fill:#FFFFFF" cx="196.6" cy="257.9" r="2.4" data-original="#FFFFFF" class="active-path"/>
	<circle style="fill:#FFFFFF" cx="311.1" cy="257.9" r="2.4" data-original="#FFFFFF" class="active-path"/>
</g></g> </svg>
