<?xml version="1.0"?>
<svg xmlns="http://www.w3.org/2000/svg" xmlns:xlink="http://www.w3.org/1999/xlink" version="1.1" id="Capa_1" x="0px" y="0px" viewBox="0 0 512 512" style="enable-background:new 0 0 512 512;" xml:space="preserve" width="512px" height="512px" class=""><g><path style="fill:#23376B" d="M116.521,346.851c0.141,18.96,1.301,41.057,2.521,65.807H10  c1.694-122.486,12.274-161.012,39.777-188.101c6.445-6.334,21.109-19.414,28.874-26.303v5.87  c40.059,5.607,47.855,40.583,47.855,74.359h4.074C119.194,289.748,116.269,313.428,116.521,346.851z" data-original="#F79020" class="" data-old_color="#23376C"/><polygon style="fill:#737679" points="502,182.491 288.307,182.491 288.307,122.756 501.992,122.764 " data-original="#8A6F64" class="" data-old_color="#74777A"/><polygon style="fill:#959292" points="439.202,226.089 288.307,226.089 288.307,182.491 439.194,182.5 " data-original="#A18362" class="active-path" data-old_color="#939191"/><path style="fill:#CCCCCC;" d="M148.984,122.756c-4.526,13.255-12.793,26.645-24.476,38.328  c-13.904,13.904-30.226,22.97-45.861,26.65v16.391c40.066,5.607,47.858,40.583,47.858,74.361H169.1v-22.151  c0-8.169,6.622-14.792,14.792-14.792h56.576c8.169,0,14.792,6.622,14.792,14.792v22.151h33.048v-155.73H148.984z" data-original="#CCCCCC"/><path d="M152.722,220.886c-3.603,0-7.083-1.952-8.869-5.365c-2.204-4.212-4.72-8.174-7.48-11.776  c-3.235-4.224-2.597-10.241,1.452-13.692c2.796-2.383,5.533-4.91,8.135-7.513c7.557-7.556,14.177-15.873,19.678-24.723  c1.825-2.935,5.036-4.72,8.493-4.72h73.834c5.523,0,10.001,4.478,10.001,10v27.18c0,5.522-4.478,10-10.001,10s-10-4.478-10-10  v-17.18h-58.398c-5.651,8.387-12.182,16.302-19.465,23.585c-0.846,0.846-1.704,1.685-2.573,2.516c1.429,2.279,2.78,4.634,4.044,7.05  c2.561,4.894,0.669,10.937-4.224,13.497C155.87,220.519,154.285,220.886,152.722,220.886z" data-original="#000000" class=""/><path d="M466.649,162.629c-0.649,0-1.31-0.07-1.96-0.2c-0.63-0.13-1.26-0.32-1.87-0.57c-0.6-0.25-1.18-0.56-1.72-0.92  c-0.55-0.37-1.06-0.779-1.52-1.25c-0.46-0.46-0.88-0.97-1.24-1.51c-0.36-0.55-0.67-1.13-0.92-1.729c-0.25-0.601-0.45-1.23-0.58-1.87  c-0.13-0.65-0.19-1.3-0.19-1.96c0-0.65,0.061-1.311,0.19-1.95s0.32-1.271,0.57-1.87s0.56-1.18,0.92-1.73  c0.37-0.539,0.79-1.06,1.25-1.52s0.97-0.88,1.52-1.24c0.54-0.359,1.12-0.67,1.72-0.92c0.61-0.25,1.24-0.439,1.87-0.57  c1.301-0.26,2.62-0.26,3.91,0c0.641,0.131,1.271,0.32,1.87,0.57c0.61,0.25,1.19,0.561,1.73,0.92c0.55,0.36,1.06,0.78,1.52,1.24  s0.88,0.98,1.24,1.52c0.359,0.551,0.67,1.131,0.92,1.73s0.439,1.23,0.57,1.87c0.13,0.64,0.199,1.3,0.199,1.95  c0,0.66-0.069,1.31-0.199,1.96c-0.131,0.64-0.32,1.27-0.57,1.87c-0.25,0.6-0.561,1.18-0.92,1.729c-0.36,0.54-0.78,1.05-1.24,1.51  c-0.46,0.471-0.97,0.88-1.52,1.25c-0.54,0.36-1.12,0.67-1.73,0.92c-0.6,0.25-1.229,0.44-1.87,0.57  C467.96,162.559,467.3,162.629,466.649,162.629z" data-original="#000000" class=""/><path style="fill:#5B6777" d="M119.043,412.658H55.082c-2.642-6.021-4.105-12.667-4.105-19.666  c0-27.059,21.946-49.005,49.005-49.005c5.809,0,11.376,1.009,16.54,2.864C116.663,365.811,117.822,387.908,119.043,412.658z" data-original="#F5A740" class="" data-old_color="#5C6879"/><path d="M512,99.34c0-5.522-4.478-10-10-10s-10,4.478-10,10v13.424l-343.017-0.008c-4.277,0-8.082,2.721-9.463,6.769  c-4.208,12.322-11.844,24.248-22.084,34.488c-11.594,11.594-25.505,19.908-39.356,23.555c-9.701-0.691-17.383-8.804-17.383-18.679  c0-5.002,1.948-9.704,5.484-13.24c3.905-3.905,3.905-10.237,0-14.143c-3.905-3.904-10.237-3.904-14.143,0  c-7.314,7.314-11.342,17.039-11.342,27.383c0,16.908,10.892,31.319,26.027,36.588c-8.932,7.965-18.874,16.952-23.965,21.955  C11.256,248.462,1.665,292.22,0.001,412.52c-0.037,2.676,1,5.255,2.879,7.161c1.879,1.905,4.443,2.978,7.12,2.978h109.042  c2.738,0,5.355-1.122,7.243-3.105c1.887-1.982,2.879-4.652,2.745-7.387l-0.276-5.588c-1.129-22.799-2.104-42.489-2.233-59.802  v-0.001c-0.161-21.257,0.752-46.476,8.722-58.29H159.1v12.352c0,13.602,11.065,24.667,24.667,24.667h56.826  c13.602,0,24.667-11.065,24.667-24.667v-12.352h23.047c5.522,0,10-4.478,10-10v-42.397h140.896c2.652,0,5.196-1.054,7.071-2.93  c1.876-1.876,2.929-4.42,2.929-7.072l-0.006-33.596H502c2.652,0,5.196-1.054,7.071-2.93c1.876-1.875,2.929-4.419,2.929-7.072V99.34z   M56.787,231.688c3.479-3.419,10.234-9.629,19.425-17.866c0.343,0.086,0.692,0.155,1.049,0.205  c27.14,3.798,39.243,23.678,39.243,64.458c0,0.705,0.073,1.393,0.212,2.057c-7.582,13.693-9.735,33.228-10.136,53.81  c-2.181-0.243-4.383-0.366-6.599-0.366c-32.535,0-59.004,26.47-59.004,59.005c0,3.269,0.263,6.496,0.784,9.667H20.165  C22.372,286.075,33.89,254.24,56.787,231.688z M62.178,402.658c-0.798-3.132-1.201-6.365-1.201-9.667  c0-21.508,17.498-39.005,39.004-39.005c2.245,0,4.465,0.188,6.645,0.562c0.282,14.456,1.032,30.331,1.909,48.11H62.178z   M245.259,300.837c0,2.573-2.094,4.667-4.667,4.667h-56.826c-2.573,0-4.667-2.094-4.667-4.667v-27.598  c0.252,0.266,0.508,0.53,0.768,0.79c7.314,7.314,17.04,11.343,27.384,11.343s20.069-4.028,27.383-11.343  c3.905-3.905,3.905-10.237,0-14.143c-3.905-3.904-10.237-3.904-14.142,0c-3.537,3.537-8.239,5.485-13.241,5.485  s-9.705-1.948-13.242-5.485c-2.351-2.351-3.999-5.217-4.841-8.345h51.299c2.642,0,4.792,2.149,4.792,4.792V300.837z   M278.307,268.485h-13.048v-12.151c0-13.67-11.121-24.792-24.792-24.792h-56.576c-13.67,0-24.792,11.122-24.792,24.792v12.151  h-22.838c-0.87-17.247-4.083-31.147-9.749-42.281c-7.983-15.685-20.698-25.844-37.866-30.286v-0.641  c15.355-5.108,30.361-14.552,42.932-27.122c10.537-10.537,18.832-22.66,24.27-35.399h122.459V268.485z M298.307,216.089v-23.597  l130.89,0.007l0.004,23.59H298.307z M298.307,172.491v-9.867h123.949c5.522,0,10-4.478,10-10s-4.478-10-10-10H298.307v-9.868  l193.687,0.009L492,172.492H298.307V172.491z" data-original="#000000" class=""/><circle style="fill:#CCCCCC;" cx="79.42" cy="261.009" r="18.826" data-original="#CCCCCC"/><path d="M79.423,289.835c-15.895,0-28.826-12.932-28.826-28.826s12.931-28.825,28.826-28.825s28.826,12.931,28.826,28.825  S95.318,289.835,79.423,289.835z M79.423,252.184c-4.867,0-8.826,3.959-8.826,8.825c0,4.867,3.959,8.826,8.826,8.826  s8.826-3.959,8.826-8.826C88.249,256.143,84.29,252.184,79.423,252.184z" data-original="#000000" class=""/></g> </svg>
