<?xml version="1.0"?>
<svg xmlns="http://www.w3.org/2000/svg" xmlns:xlink="http://www.w3.org/1999/xlink" version="1.1" id="Layer_1" x="0px" y="0px" viewBox="0 0 512 512" style="enable-background:new 0 0 512 512;" xml:space="preserve" width="512px" height="512px" class=""><g><path style="fill:#363535" d="M32.063,444.761c-6.096,6.096-9.451,14.201-9.451,22.822c0,8.622,3.358,16.728,9.454,22.825  c12.582,12.579,33.057,12.582,45.641-0.002l104.937-104.937l-45.642-45.644L32.063,444.761z M64.431,466.642  c-1.131,1.131-2.7,1.776-4.305,1.776c-1.593,0-3.162-0.645-4.293-1.776c-1.131-1.132-1.776-2.701-1.776-4.305  c0-1.605,0.645-3.174,1.776-4.305c1.131-1.132,2.7-1.776,4.293-1.776c1.605,0,3.174,0.643,4.305,1.776  c1.131,1.142,1.776,2.711,1.776,4.305C66.206,463.941,65.562,465.497,64.431,466.642z M103.569,427.503  c-1.131,1.132-2.7,1.776-4.293,1.776c-1.605,0-3.174-0.643-4.305-1.776c-1.131-1.142-1.776-2.7-1.776-4.305  c0-1.604,0.645-3.173,1.776-4.305c1.131-1.131,2.7-1.776,4.305-1.776c1.593,0,3.162,0.645,4.293,1.776  c1.131,1.143,1.788,2.712,1.788,4.305C105.356,424.791,104.7,426.361,103.569,427.503z M142.707,379.754  c1.131,1.131,1.788,2.7,1.788,4.305c0,1.605-0.657,3.162-1.788,4.305c-1.131,1.131-2.7,1.776-4.293,1.776  c-1.605,0-3.174-0.645-4.305-1.776c-1.131-1.143-1.776-2.7-1.776-4.305c0-1.605,0.645-3.174,1.776-4.305  c1.131-1.131,2.7-1.776,4.305-1.776C140.007,377.978,141.575,378.624,142.707,379.754z" data-original="#754C24" class="active-path" data-old_color="#3B3A3A"/><path style="fill:#808080;" d="M477.326,35.968c-4.072-7.364-9.153-14.451-15.282-21.188l-9.693,9.693  c5.544,7.205,10.046,14.195,13.622,21.177C469.593,42.524,473.37,39.301,477.326,35.968z" data-original="#808080"/><path style="fill:#C43333;" d="M438.256,235.377c-0.609,0-3.891,1.852-7.674,10.41c-3.223,7.292-4.963,15.401-4.963,19.328  c0,6.969,5.669,12.638,12.638,12.638c6.969,0,12.638-5.669,12.638-12.638c0-3.927-1.74-12.035-4.963-19.328  C442.146,237.231,438.865,235.377,438.256,235.377z" data-original="#C43333"/><path style="fill:#808080;" d="M234.631,372.567c3.118,1.686,6.283,3.758,9.389,6.296l91.347-91.346  c-1.665-2.525-3.688-5.991-5.495-10.193L234.631,372.567z" data-original="#808080"/><path style="fill:#C43333;" d="M463.875,152.989c-3.349,1.402-9.448,15.384-9.448,23.595c0,5.209,4.238,9.449,9.448,9.449  s9.449-4.239,9.449-9.449C473.324,168.372,467.225,154.392,463.875,152.989z" data-original="#C43333"/><path style="fill:#E6E6E6;" d="M343.82,214.854c9.326-9.327,17.831-15.309,25.336-20.586c15.129-10.638,23.462-16.498,23.462-40.218  c0-32.221,14.405-56.146,63.877-100.102c-3.232-6.822-7.466-13.674-12.83-20.793L145.6,331.224l45.644,45.645l9.848-9.848  c1.046-1.046,2.437-1.675,3.914-1.77c0.54-0.03,7.819-0.417,17.408,2.335l103.492-103.493  C323.51,250.157,326.127,232.546,343.82,214.854z" data-original="#E6E6E6" class=""/><path style="fill:#C43333;" d="M404.78,154.05c0,30.036-12.634,38.92-28.629,50.168c-7.102,4.994-15.149,10.653-23.733,19.236  c-23.13,23.129-14.34,45.417-8.313,55.325c0,0,98.032-98.057,98.493-98.529c-0.206-1.193-0.334-2.413-0.334-3.666  c0-8.337,6.737-35.798,21.61-35.798c2.729,0,5.184,0.932,7.374,2.493c19.439-33.188,23.176-66.418,11.458-95.939  C421.727,98.956,404.78,122.515,404.78,154.05z" data-original="#C43333"/><path d="M60.125,456.255c-1.593,0-3.162,0.643-4.293,1.776c-1.131,1.131-1.776,2.7-1.776,4.305c0,1.604,0.645,3.173,1.776,4.305  c1.131,1.131,2.7,1.776,4.293,1.776c1.605,0,3.174-0.645,4.305-1.776c1.131-1.143,1.776-2.701,1.776-4.305  c0-1.593-0.645-3.162-1.776-4.305C63.299,456.899,61.73,456.255,60.125,456.255z" data-original="#000000" class="" style="fill:#000000"/><path d="M99.275,417.116c-1.605,0-3.174,0.645-4.305,1.776c-1.131,1.132-1.776,2.701-1.776,4.305c0,1.605,0.645,3.163,1.776,4.305  c1.131,1.132,2.7,1.776,4.305,1.776c1.593,0,3.162-0.643,4.293-1.776c1.131-1.142,1.788-2.711,1.788-4.305  c0-1.593-0.657-3.162-1.788-4.305C102.437,417.761,100.868,417.116,99.275,417.116z" data-original="#000000" class="" style="fill:#000000"/><path d="M132.332,384.059c0,1.605,0.645,3.162,1.776,4.305c1.131,1.131,2.7,1.776,4.305,1.776c1.593,0,3.162-0.645,4.293-1.776  c1.131-1.143,1.788-2.7,1.788-4.305c0-1.605-0.657-3.174-1.788-4.305c-1.131-1.131-2.7-1.776-4.293-1.776  c-1.605,0-3.174,0.645-4.305,1.776C132.977,380.885,132.332,382.454,132.332,384.059z" data-original="#000000" class="" style="fill:#000000"/><path d="M501.477,77.908c-1.046-28.314-12.834-53.927-35.034-76.127c-2.373-2.375-6.226-2.375-8.599,0L23.463,436.162  c-8.392,8.391-13.015,19.551-13.014,31.421c0,11.872,4.623,23.03,13.017,31.425C32.129,507.669,43.507,512,54.886,512  s22.759-4.331,31.422-12.994l121.606-121.606c5.37,0.215,19.866,1.978,32.029,14.141c2.375,2.375,6.225,2.375,8.6,0l199.879-199.88  c3.926,4.024,9.399,6.535,15.453,6.535c11.917,0,21.611-9.695,21.611-21.611c0-4.535-1.999-14.726-6.211-23.081  C494.709,128.656,502.389,102.593,501.477,77.908z M462.044,14.78c6.129,6.737,11.211,13.824,15.282,21.188  c-3.955,3.332-7.733,6.555-11.353,9.682c-3.576-6.982-8.079-13.972-13.622-21.177L462.044,14.78z M77.707,490.406  c-12.585,12.584-33.061,12.582-45.641,0.002c-6.097-6.097-9.454-14.203-9.454-22.825c0-8.622,3.357-16.727,9.451-22.822  l104.938-104.937l45.642,45.644L77.707,490.406z M205.005,365.252c-1.477,0.095-2.868,0.724-3.914,1.77l-9.848,9.848L145.6,331.224  L443.667,33.156c5.364,7.117,9.598,13.97,12.83,20.793c-49.473,43.957-63.877,67.88-63.877,100.102  c0,23.72-8.335,29.58-23.462,40.218c-7.505,5.277-16.01,11.259-25.336,20.586c-17.694,17.692-20.31,35.302-17.915,49.24  L222.414,367.588C212.823,364.836,205.545,365.221,205.005,365.252z M244.02,378.864c-3.106-2.538-6.27-4.611-9.389-6.296  l95.241-95.243c1.806,4.202,3.83,7.668,5.495,10.193L244.02,378.864z M463.875,186.033c-5.209,0-9.448-4.239-9.448-9.449  c0-8.211,6.099-22.192,9.448-23.595c3.349,1.402,9.449,15.383,9.449,23.595C473.324,181.794,469.086,186.033,463.875,186.033z   M471.249,143.28c-2.19-1.562-4.644-2.493-7.374-2.493c-14.873,0-21.61,27.46-21.61,35.798c0,1.251,0.129,2.471,0.334,3.666  c-0.462,0.472-98.493,98.529-98.493,98.529c-6.028-9.907-14.817-32.197,8.313-55.325c8.584-8.583,16.632-14.242,23.733-19.236  c15.995-11.248,28.629-20.132,28.629-50.168c0-31.535,16.947-55.094,77.926-106.709C494.426,76.861,490.688,110.092,471.249,143.28z  " data-original="#000000" class="" style="fill:#000000"/><path d="M438.256,223.215c-16.273,0-24.8,31.133-24.8,41.9c0,13.674,11.125,24.8,24.8,24.8c13.674,0,24.8-11.125,24.8-24.8  C463.056,254.348,454.529,223.215,438.256,223.215z M438.256,277.753c-6.968,0-12.638-5.669-12.638-12.638  c0-3.927,1.74-12.035,4.963-19.328c3.782-8.557,7.065-10.41,7.674-10.41c0.609,0,3.891,1.852,7.674,10.41  c3.223,7.292,4.963,15.401,4.963,19.328C450.893,272.084,445.223,277.753,438.256,277.753z" data-original="#000000" class="" style="fill:#000000"/></g> </svg>
